<svg width="132" height="280" viewBox="0 0 132 280" fill="none" xmlns="http://www.w3.org/2000/svg">
<path d="M125.3 96.2037C124.568 96.4489 123.958 96.5714 123.592 96.5714C122.737 96.5714 120.174 95.5908 120.174 95.5908C120.174 95.5908 122.005 95.4683 122.737 95.3457C123.104 95.2231 123.958 94.9779 124.812 94.6102C124.568 93.8747 124.324 93.3844 124.202 92.8941C122.981 92.8941 121.273 92.7715 120.54 92.5264C119.442 92.1586 116.757 89.7071 116.757 89.7071C116.757 89.7071 119.076 90.4426 120.052 90.5652C120.662 90.6878 122.615 90.6878 123.958 90.5652C123.958 88.9717 123.958 86.6427 123.958 85.4169C123.958 83.8234 116.635 74.1398 113.827 70.5851L105.894 73.8947L112.363 67.6432L110.044 57.3468L99.9134 55.0178L96.984 45.2116H94.0548C95.6415 41.2892 96.6179 36.9989 96.6179 32.4636C96.6179 14.8125 82.9479 0.593506 66.2266 0.593506C49.5053 0.593506 35.8353 14.8125 35.8353 32.4636C35.8353 36.9989 36.8117 41.2892 38.3984 45.2116H35.4691L32.5398 55.0178L22.4094 57.3468L20.0903 67.6432L26.5592 73.8947L18.6257 70.5851C15.8185 74.1398 8.49526 83.8234 8.49526 85.4169C8.49526 86.6427 8.49526 88.9717 8.49526 90.5652C9.83785 90.5652 11.9128 90.5652 12.401 90.5652C13.3774 90.4426 15.6964 89.7071 15.6964 89.7071C15.6964 89.7071 13.0113 92.1586 11.9128 92.5264C11.1805 92.7715 9.59376 92.8941 8.25117 92.8941C8.12912 93.2619 7.88501 93.8747 7.64091 94.6102C8.49528 94.9779 9.34963 95.2231 9.71579 95.3457C10.4481 95.4683 12.2789 95.5908 12.2789 95.5908C12.2789 95.5908 9.71582 96.5714 8.86144 96.5714C8.49528 96.5714 7.76297 96.3263 7.1527 96.2037C4.83368 102.333 0.439758 114.1 0.439758 117.655C0.439758 121.087 7.51883 128.074 11.5466 131.874L24.8505 133.345C24.8505 133.345 22.0432 134.08 19.7242 134.325C17.4052 134.57 14.2318 134.325 14.2318 134.325C14.2318 134.325 13.8656 136.777 14.9641 138.003C16.1847 139.228 19.9683 140.699 19.9683 140.699L23.7519 145.97L27.6577 143.886L24.3622 148.667C24.9725 151.976 26.071 157.492 27.2915 159.208C29.0003 161.66 33.6383 162.028 33.6383 162.028C33.6383 162.028 26.6813 195.736 27.2915 197.33C27.6577 198.433 27.5356 202.356 27.4136 204.684L32.7839 202.601L27.0474 207.259C25.8269 210.568 20.4565 226.013 20.4565 228.587C20.4565 228.71 20.4565 228.832 20.4565 228.832L24.3622 227.484L20.9447 230.671C21.4329 231.774 22.2873 232.877 22.8976 233.858L28.1459 231.284L24.6063 235.819C24.6063 235.819 18.3816 262.173 18.7478 263.889C18.8698 264.625 19.6021 265.605 20.0903 266.341C21.0668 265.973 22.4094 265.36 22.7755 264.992C23.2637 264.625 25.8269 262.051 25.8269 262.051C25.8269 262.051 24.2402 265.973 23.5079 266.586C23.0196 266.954 22.0432 267.567 21.4329 267.812C21.4329 267.812 19.1139 273.45 19.1139 279.947H40.8394L46.2098 260.089C46.2098 260.089 49.2611 258.006 50.1155 253.961C50.9699 249.915 54.0212 234.471 54.0212 234.471L59.8798 216.942L66.1045 182.375L72.3293 216.942L78.1878 234.471C78.1878 234.471 81.2392 249.915 82.0935 253.961C82.9479 258.006 85.9992 260.089 85.9992 260.089L91.3696 279.947H113.095C113.095 273.45 110.776 267.812 110.776 267.812C110.044 267.444 109.067 266.954 108.701 266.586C107.969 265.973 106.382 262.051 106.382 262.051C106.382 262.051 108.823 264.625 109.434 264.992C109.8 265.238 111.142 265.851 112.119 266.341C112.729 265.605 113.339 264.625 113.461 263.889C113.827 262.296 107.603 235.819 107.603 235.819L104.063 231.284L109.311 233.858C110.044 233 110.776 231.774 111.264 230.671L107.969 227.361L111.875 228.71C111.875 228.587 111.875 228.464 111.875 228.464C111.875 225.89 106.504 210.568 105.284 207.136L99.5472 202.478L104.918 204.562C104.795 202.11 104.673 198.311 105.04 197.207C105.65 195.614 98.6928 161.905 98.6928 161.905C98.6928 161.905 103.331 161.537 105.04 159.086C106.26 157.37 107.359 151.854 107.969 148.544L104.673 143.764L108.579 145.847L112.363 140.577C112.363 140.577 116.269 139.106 117.367 137.88C118.588 136.654 118.099 134.203 118.099 134.203C118.099 134.203 114.926 134.448 112.607 134.203C110.288 133.957 107.481 133.222 107.481 133.222L120.784 131.751C124.812 128.074 131.891 121.087 131.891 117.532C131.891 113.977 127.619 102.21 125.3 96.2037Z" fill="url(#paint0_linear_4_469)"/>
<defs>
<linearGradient id="paint0_linear_4_469" x1="66.0374" y1="381.555" x2="66.0374" y2="81.8622" gradientUnits="userSpaceOnUse">
<stop stop-color="#000018"/>
<stop offset="1" stop-color="#091433"/>
</linearGradient>
</defs>
</svg>
